<?xml version="1.0" encoding="UTF-8" standalone="no" ?>
<!DOCTYPE svg PUBLIC "-//W3C//DTD SVG 1.1//EN" "http://www.w3.org/Graphics/SVG/1.1/DTD/svg11.dtd">
<svg xmlns="http://www.w3.org/2000/svg" xmlns:xlink="http://www.w3.org/1999/xlink" version="1.1" width="1024" height="1024" viewBox="0 0 1024 1024" xml:space="preserve">
<desc>Created with Fabric.js 5.2.4</desc>
<defs>
</defs>
<rect x="0" y="0" width="100%" height="100%" fill="transparent"></rect>
<g transform="matrix(1 0 0 1 512 512)" id="8cb5dc06-deae-400c-a64c-e290882de2a0"  >
<rect style="stroke: none; stroke-width: 1; stroke-dasharray: none; stroke-linecap: butt; stroke-dashoffset: 0; stroke-linejoin: miter; stroke-miterlimit: 4; fill: rgb(255,255,255); fill-rule: nonzero; opacity: 1; visibility: hidden;" vector-effect="non-scaling-stroke"  x="-512" y="-512" rx="0" ry="0" width="1024" height="1024" />
</g>
<g transform="matrix(Infinity NaN NaN Infinity 0 0)" id="d6e870fc-2754-48e1-9106-6afe6795a287"  >
</g>
<g transform="matrix(0.99 0 0 0.99 512 512)"  >
<g style="" vector-effect="non-scaling-stroke"   >
		<g transform="matrix(0.13 0 0 -0.13 -230.28 0)"  >
<path style="stroke: none; stroke-width: 1; stroke-dasharray: none; stroke-linecap: butt; stroke-dashoffset: 0; stroke-linejoin: miter; stroke-miterlimit: 4; fill: rgb(67,170,84); fill-rule: nonzero; opacity: 1;" vector-effect="non-scaling-stroke"  transform=" translate(-2825, -4490.88)" d="M 2650 6764 C 2540 6747 2439 6719 2446 6708 C 2449 6704 2444 6703 2436 6706 C 2410 6716 2193 6639 2197 6621 C 2199 6615 2194 6613 2186 6616 C 2153 6629 1911 6489 1764 6372 C 1412 6094 1168 5725 1031 5269 C 951 5000 926 4816 926 4480 C 926 4184 957 3927 1015 3740 C 1073 3555 1110 3457 1170 3335 C 1277 3117 1391 2957 1559 2790 C 2035 2317 2751 2113 3495 2240 C 3818 2295 4182 2435 4486 2621 L 4567 2671 L 4488 2818 C 4444 2899 4368 3040 4318 3133 C 4269 3225 4224 3300 4220 3300 C 4216 3300 4172 3277 4123 3248 C 3936 3138 3692 3046 3490 3009 C 3389 2990 3040 2990 2941 3009 C 2838 3028 2651 3092 2572 3136 C 2317 3277 2133 3490 2021 3773 C 1975 3888 1910 4149 1910 4217 C 1910 4227 2199 4230 3302 4232 L 4694 4235 L 4709 4310 C 4720 4366 4724 4467 4724 4715 C 4724 5006 4722 5061 4702 5185 C 4674 5367 4617 5589 4574 5685 C 4567 5702 4551 5740 4540 5770 C 4485 5912 4313 6189 4288 6174 C 4281 6170 4280 6171 4284 6179 C 4293 6193 4182 6322 4167 6313 C 4162 6310 4160 6312 4163 6317 C 4171 6330 4022 6456 3927 6518 C 3834 6578 3653 6663 3638 6654 C 3631 6650 3628 6651 3633 6655 C 3648 6672 3386 6744 3230 6765 C 3094 6784 2776 6783 2650 6764 z M 3160 5984 C 3254 5967 3392 5911 3464 5861 C 3521 5822 3604 5741 3642 5690 C 3722 5579 3797 5396 3826 5235 C 3834 5191 3844 5093 3847 5018 L 3853 4880 L 2876 4880 C 2339 4880 1900 4884 1900 4888 C 1900 4893 1908 4944 1919 5001 C 1958 5216 2060 5462 2169 5604 C 2332 5815 2558 5952 2810 5993 C 2877 6004 3085 5999 3160 5984 z" stroke-linecap="round" />
</g>
		<g transform="matrix(0.13 0 0 -0.13 267.6 -1.8)"  >
<path style="stroke: none; stroke-width: 1; stroke-dasharray: none; stroke-linecap: butt; stroke-dashoffset: 0; stroke-linejoin: miter; stroke-miterlimit: 4; fill: rgb(67,170,84); fill-rule: nonzero; opacity: 1;" vector-effect="non-scaling-stroke"  transform=" translate(-6559.09, -4504.35)" d="M 4940 6713 C 4940 6708 5064 6329 5216 5870 C 5555 4846 5648 4563 6020 3440 C 6181 2953 6332 2497 6355 2425 L 6399 2295 L 6564 2292 L 6729 2290 L 6885 2767 C 6971 3030 7056 3290 7075 3345 C 7094 3400 7175 3648 7255 3895 C 7336 4143 7419 4397 7440 4460 C 7461 4523 7519 4699 7569 4850 C 7855 5727 8169 6683 8178 6708 C 8181 6718 8149 6720 8024 6718 L 7867 6715 L 7849 6660 C 7839 6630 7806 6524 7775 6425 C 7744 6326 7701 6191 7679 6125 C 7658 6059 7596 5863 7541 5690 C 7427 5327 7290 4895 7185 4565 C 7145 4439 7084 4245 7050 4135 C 7016 4025 6976 3895 6960 3845 C 6944 3796 6908 3679 6880 3585 C 6691 2958 6588 2646 6569 2642 C 6559 2640 6547 2660 6531 2707 C 6482 2855 6319 3365 6265 3540 C 6234 3642 6196 3766 6180 3815 C 6164 3865 6119 4009 6080 4135 C 6041 4262 6001 4390 5990 4420 C 5980 4450 5923 4628 5865 4815 C 5750 5181 5623 5582 5560 5775 C 5539 5841 5472 6055 5410 6250 C 5349 6445 5291 6630 5281 6660 L 5263 6715 L 5102 6718 C 5013 6719 4940 6717 4940 6713 z" stroke-linecap="round" />
</g>
</g>
</g>
</svg>