<svg xmlns="http://www.w3.org/2000/svg" version="1.1" xmlns:xlink="http://www.w3.org/1999/xlink" xmlns:svgjs="http://svgjs.com/svgjs" width="1440" height="1080" preserveAspectRatio="none" viewBox="0 0 1440 1080"><g mask="url(&quot;#SvgjsMask1067&quot;)" fill="none"><rect width="1440" height="1080" x="0" y="0" fill="url(#SvgjsLinearGradient1068)"></rect><path d="M1392 657L1391 315" stroke-width="8" stroke="url(#SvgjsLinearGradient1069)" stroke-linecap="round" class="Down"></path><path d="M521 533L520 886" stroke-width="8" stroke="url(#SvgjsLinearGradient1069)" stroke-linecap="round" class="Down"></path><path d="M945 854L944 1599" stroke-width="6" stroke="url(#SvgjsLinearGradient1070)" stroke-linecap="round" class="Up"></path><path d="M1145 538L1144 237" stroke-width="10" stroke="url(#SvgjsLinearGradient1069)" stroke-linecap="round" class="Down"></path><path d="M665 613L664 1360" stroke-width="10" stroke="url(#SvgjsLinearGradient1069)" stroke-linecap="round" class="Down"></path><path d="M1204 31L1203 671" stroke-width="10" stroke="url(#SvgjsLinearGradient1069)" stroke-linecap="round" class="Down"></path><path d="M50 854L49 516" stroke-width="10" stroke="url(#SvgjsLinearGradient1069)" stroke-linecap="round" class="Down"></path><path d="M1122 947L1121 1475" stroke-width="6" stroke="url(#SvgjsLinearGradient1070)" stroke-linecap="round" class="Up"></path><path d="M409 32L408 -419" stroke-width="6" stroke="url(#SvgjsLinearGradient1070)" stroke-linecap="round" class="Up"></path><path d="M182 473L181 -256" stroke-width="10" stroke="url(#SvgjsLinearGradient1069)" stroke-linecap="round" class="Down"></path><path d="M300 344L299 1002" stroke-width="10" stroke="url(#SvgjsLinearGradient1069)" stroke-linecap="round" class="Down"></path><path d="M1187 897L1186 1429" stroke-width="8" stroke="url(#SvgjsLinearGradient1070)" stroke-linecap="round" class="Up"></path><path d="M918 916L917 621" stroke-width="6" stroke="url(#SvgjsLinearGradient1069)" stroke-linecap="round" class="Down"></path><path d="M789 343L788 -441" stroke-width="10" stroke="url(#SvgjsLinearGradient1070)" stroke-linecap="round" class="Up"></path><path d="M328 1012L327 472" stroke-width="6" stroke="url(#SvgjsLinearGradient1069)" stroke-linecap="round" class="Down"></path><path d="M344 1044L343 1416" stroke-width="6" stroke="url(#SvgjsLinearGradient1070)" stroke-linecap="round" class="Up"></path><path d="M1396 1080L1395 1389" stroke-width="8" stroke="url(#SvgjsLinearGradient1069)" stroke-linecap="round" class="Down"></path><path d="M500 215L499 650" stroke-width="10" stroke="url(#SvgjsLinearGradient1070)" stroke-linecap="round" class="Up"></path><path d="M1196 394L1195 993" stroke-width="6" stroke="url(#SvgjsLinearGradient1070)" stroke-linecap="round" class="Up"></path><path d="M1009 514L1008 1316" stroke-width="6" stroke="url(#SvgjsLinearGradient1069)" stroke-linecap="round" class="Down"></path><path d="M720 437L719 -305" stroke-width="10" stroke="url(#SvgjsLinearGradient1069)" stroke-linecap="round" class="Down"></path><path d="M984 761L983 1209" stroke-width="8" stroke="url(#SvgjsLinearGradient1070)" stroke-linecap="round" class="Up"></path><path d="M667 325L666 -482" stroke-width="8" stroke="url(#SvgjsLinearGradient1069)" stroke-linecap="round" class="Down"></path><path d="M1225 534L1224 182" stroke-width="6" stroke="url(#SvgjsLinearGradient1070)" stroke-linecap="round" class="Up"></path><path d="M741 952L740 617" stroke-width="6" stroke="url(#SvgjsLinearGradient1070)" stroke-linecap="round" class="Up"></path><path d="M764 237L763 -428" stroke-width="10" stroke="url(#SvgjsLinearGradient1069)" stroke-linecap="round" class="Down"></path><path d="M817 405L816 1092" stroke-width="6" stroke="url(#SvgjsLinearGradient1070)" stroke-linecap="round" class="Up"></path><path d="M1386 92L1385 756" stroke-width="6" stroke="url(#SvgjsLinearGradient1069)" stroke-linecap="round" class="Down"></path><path d="M1149 323L1148 -269" stroke-width="6" stroke="url(#SvgjsLinearGradient1070)" stroke-linecap="round" class="Up"></path><path d="M609 42L608 -388" stroke-width="10" stroke="url(#SvgjsLinearGradient1069)" stroke-linecap="round" class="Down"></path><path d="M1421 508L1420 1235" stroke-width="10" stroke="url(#SvgjsLinearGradient1069)" stroke-linecap="round" class="Down"></path><path d="M382 801L381 1227" stroke-width="8" stroke="url(#SvgjsLinearGradient1070)" stroke-linecap="round" class="Up"></path><path d="M1156 910L1155 1523" stroke-width="10" stroke="url(#SvgjsLinearGradient1069)" stroke-linecap="round" class="Down"></path><path d="M615 19L614 -664" stroke-width="6" stroke="url(#SvgjsLinearGradient1069)" stroke-linecap="round" class="Down"></path><path d="M1411 3L1410 -672" stroke-width="6" stroke="url(#SvgjsLinearGradient1070)" stroke-linecap="round" class="Up"></path><path d="M1414 322L1413 -143" stroke-width="10" stroke="url(#SvgjsLinearGradient1070)" stroke-linecap="round" class="Up"></path></g><defs><mask id="SvgjsMask1067"><rect width="1440" height="1080" fill="#ffffff"></rect></mask><linearGradient x1="6.25%" y1="-8.33%" x2="93.75%" y2="108.33%" gradientUnits="userSpaceOnUse" id="SvgjsLinearGradient1068"><stop stop-color="#0e2a47" offset="0"></stop><stop stop-color="#00459e" offset="1"></stop></linearGradient><linearGradient x1="0%" y1="0%" x2="0%" y2="100%" id="SvgjsLinearGradient1069"><stop stop-color="rgba(28, 83, 142, 0)" offset="0"></stop><stop stop-color="#1c538e" offset="1"></stop></linearGradient><linearGradient x1="0%" y1="100%" x2="0%" y2="0%" id="SvgjsLinearGradient1070"><stop stop-color="rgba(28, 83, 142, 0)" offset="0"></stop><stop stop-color="#1c538e" offset="1"></stop></linearGradient></defs></svg>