<svg xmlns="http://www.w3.org/2000/svg" x="0px" y="0px"
	 width="110px" height="56px" viewBox="0 0 110 56" enable-background="new 0 0 110 56" xml:space="preserve">
<path d="M18.522,41.932c-2.721,0-5.379,0-8.126,0C6.944,32.511,3.482,23.063,0,13.56c3.008,0,5.924,0,8.898,0
	c2.031,6.314,4.061,12.628,6.091,18.941c0.802-2.049,1.395-4.15,2.042-6.233c0.661-2.126,1.302-4.259,1.952-6.389
	c0.642-2.105,1.284-4.211,1.928-6.323c2.217,0,4.377,0,6.616,0c1.94,6.298,3.883,12.605,5.826,18.914
	c0.049,0.004,0.098,0.008,0.148,0.011c2.041-6.289,4.045-12.59,6.088-18.91c2.93,0,5.838,0,8.844,0
	c-3.473,9.48-6.921,18.894-10.382,28.341c-2.692,0-5.367,0-8.138,0c-1.853-5.775-3.718-11.589-5.583-17.403
	c-0.041,0-0.081,0.001-0.122,0.001C22.32,30.299,20.43,36.087,18.522,41.932z"/>
<path d="M65.647,42.478c-2.862-0.021-5.508-0.474-7.965-1.745c-4.017-2.08-6.402-5.388-7.249-9.803
	c-0.5-2.608-0.42-5.22,0.314-7.776c1.196-4.163,3.778-7.175,7.799-8.809c4.587-1.862,9.262-1.908,13.843-0.016
	c4.594,1.896,7.258,5.454,8.185,10.304c0.52,2.719,0.421,5.44-0.447,8.08c-1.587,4.823-4.948,7.798-9.791,9.159
	C68.765,42.315,67.15,42.457,65.647,42.478z M72.511,27.465c-0.062-0.464-0.108-1.268-0.282-2.043
	c-0.669-2.985-2.938-5.153-5.933-5.424c-3.787-0.344-6.345,1.776-7.303,4.647c-0.508,1.526-0.592,3.091-0.367,4.675
	c0.455,3.206,2.66,5.755,5.925,6.132c3.525,0.407,6.146-1.349,7.322-4.228C72.321,30.127,72.463,28.974,72.511,27.465z"/>
<path d="M94.284,41.912c-2.684,0-5.353,0-8.058,0c0-13.601,0-27.16,0-40.761c2.68,0,5.332,0,7.989,0
	c0.008,0.006,0.024,0.019,0.04,0.035c0.015,0.015,0.037,0.032,0.037,0.049c0.012,13.438,0.021,26.877,0.028,40.316
	C94.321,41.656,94.301,41.76,94.284,41.912z"/>
<path d="M109.268,41.915c-2.703,0-5.354,0-8.02,0c0-9.466,0-18.887,0-28.347c2.682,0,5.33,0,8.02,0
	C109.268,23.015,109.268,32.435,109.268,41.915z"/>
<path d="M65.438,55.785c-2.799-0.003-4.752-1.949-4.745-4.728c0.007-2.746,2.016-4.748,4.761-4.745
	c2.741,0.002,4.718,2.011,4.71,4.786C70.157,53.824,68.179,55.787,65.438,55.785z"/>
<path d="M105.237,9.689c-2.8-0.015-4.735-1.975-4.704-4.763c0.029-2.752,2.048-4.735,4.793-4.711
	c2.742,0.024,4.713,2.058,4.673,4.826C109.957,7.795,108.003,9.705,105.237,9.689z"/>
</svg>
